<svg version="1" xmlns="http://www.w3.org/2000/svg" width="1633.333" height="1633.333" viewBox="0 0 1225.000000 1225.000000"><path d="M29.2 135.5c-5.2 1.5-13.7 6.4-17.8 10.2-3.4 3.4-8.1 11.5-9.7 16.8-6.1 20.8 5.2 42.3 25.9 49.4 5.9 2 6.8 2 336.9 2.1 330.4.1 392.9.3 408 1.5 13.8 1.1 25.7 2.3 29.4 3 1 .2 4.2.6 7.1 1 2.9.4 6.2.9 7.4 1.1 1.2.3 4.6.9 7.6 1.5 12 2.3 34.3 8.3 49.5 13.3 71.4 23.9 136.2 69.1 183.4 127.9 6.7 8.3 24.1 32.2 24.1 33.1 0 .2 2.8 4.8 6.2 10.2 5.6 8.9 21.5 39.4 24.5 46.9.7 1.6 2.3 5.7 3.7 9 7.7 18.6 16.1 45 19.2 60.5.3 1.4.9 4.1 1.4 6 .5 1.9 1.1 5.1 1.4 7 .3 1.9.8 4.6 1.1 6 .2 1.3.7 4 1 6 .3 2 .7 4.6 1 5.9.2 1.3.7 4.9 1 8 .4 3.1.8 6.7 1 8 2 11.9 2.6 54.8 1.1 73.6-1.1 14.5-1.8 20.1-4.6 36-1 6-2.2 12.6-2.5 14.5-1.4 8-8.1 32.5-12.7 46-34.5 101.5-106.9 183.5-203.3 230.5-9.3 4.6-21.3 10-26.5 12-16.8 6.6-43.2 15-53.9 17.1-1.2.3-5.3 1.2-8.9 2-3.7.9-7.8 1.7-9.2 1.9-1.4.2-3.6.6-5 .9-3.7.8-16 2.7-20.2 3.2-2.1.2-5.7.6-8 .9-20.4 2.4-69.6 2.5-82.4.1-1-.2-5-.7-8.9-1-3.8-.4-7.7-.9-8.5-1.1-.8-.2-3.5-.7-6-1-2.5-.4-7.6-1.3-11.5-2-3.8-.8-8.2-1.6-9.6-1.9-4.8-.8-29.3-7.5-38.4-10.5-46.4-15.3-87.7-37.7-126.5-68.7-13-10.5-44.9-41.3-52-50.3-1.9-2.4-4.3-5.3-5.3-6.3-6-6.3-27.9-37.4-34.6-49-1-1.8-3.5-6.2-5.6-9.8-2-3.6-6.3-11.7-9.5-18-3.3-6.7-7.5-13.3-9.9-15.7-22-22.7-59.7-13.1-67.5 17.2-3.8 14.4-.9 24 17.3 56 7.1 12.6 6.5 11.7 15 25C355.4 888 377 917 385.6 926c1.3 1.4 3.8 4.1 5.5 6 4.8 5.5 24 25 30.6 31 11.4 10.5 13.9 12.7 24.3 21.1 13.7 11.2 34.4 26.2 43.2 31.4.9.5 6.3 3.8 12 7.2 15.6 9.3 16.1 9.6 33.3 18.1 30.9 15.4 73.5 31.2 96.5 35.7.8.2 3.3.8 5.5 1.3 4.1 1.1 21.5 4.7 27 5.6 1.7.3 4.8.8 7 1.1 2.2.4 5.1.8 6.5 1 1.4.2 3.9.6 5.5.9 1.7.2 5.7.7 9 1.1 6.1.7 8.3.9 24 2.1 17.3 1.4 65.1.7 77.5-1.1 1.4-.2 5.2-.6 8.5-1 3.3-.3 7.1-.8 8.5-1 1.4-.2 4.3-.7 6.5-1 65.2-9.2 131.4-33.9 187.5-69.8 5.2-3.4 9.7-6.4 10-6.7.3-.3 2.5-1.8 5-3.4 9.5-6.2 31.8-23.6 45.4-35.5 8.3-7.3 37.3-36.9 44.7-45.6 17.1-20.2 30.6-38.4 43-58.3 24-38.5 45.4-87.1 55.5-126.2.8-3 1.7-6.3 1.9-7.3 1-3.7 1.8-7 3.9-15.7 1.4-6.1 1.8-8.1 3.1-15.5.3-1.7 1-5.3 1.5-8 .5-2.8 1.2-7 1.5-9.5.3-2.5.8-5.6 1-7 .2-1.4.7-5.2 1-8.5.4-3.3.8-7.1 1-8.5 1.9-13.3 2.6-61.5 1.2-80.5-1.3-17.3-3.4-34.7-5.2-44.5-.3-1.9-.8-5-1.1-6.8-.3-2.6-2.6-13.5-4.9-23.2-2.9-12.6-4-17.1-6.6-25.8-8-27.5-16.7-49.8-29.9-76.7-24.5-49.7-52.9-89.4-92.4-128.8-57.5-57.5-127.8-98.5-208.1-121.6-3.8-1.1-8.1-2.2-9.5-2.5-1.4-.2-6.1-1.4-10.5-2.5s-9.3-2.2-10.9-2.5c-1.6-.3-5.2-1-8-1.5-7.5-1.5-9.9-1.9-22.6-3.6l-14-2c-1.4-.2-6.3-.7-11-1-4.7-.4-10.7-1-13.5-1.2-2.7-.3-170.6-.7-373-.9-319.2-.3-368.7-.1-373.3 1.1z"/><path d="M71.4 352.1c-11.1 3.8-21.6 13.9-25 24.4-3.6 10.5-2.4 24.1 2.8 33.2 4.8 8.4 14.1 15.8 23.4 18.6 5.6 1.6 4.3 1.6 86.9 2.2 171.8 1.3 214.2 1.4 218 .4 7.7-2.1 12.9-5.2 18.6-10.8 8.2-8.2 11.7-16.6 11.7-28.2 0-19.8-13.9-36.1-33.6-39.4-1.7-.3-35.5-.7-75-1-243.8-1.6-221-1.7-227.8.6zm660.4-.6c-.2.2-3.4.6-7.3.9-74.8 7.2-131.1 45.3-151.3 102.6-1.6 4.7-3.3 10.5-3.8 13-.4 2.5-.8 4.7-.9 5-.2.7-1.6 8.8-2.1 12.3-1.1 7.1-.2 42.5 1.2 44.8.2.3 1 4 1.9 8.1 9 43.6 39.9 78 87.1 96.9 13.5 5.4 38.6 12.5 50.4 14.4 2.5.4 5.4.9 6.5 1.1 1.1.2 8 1.3 15.5 2.4 16.1 2.4 21.7 3.5 40 7.5 4.4.9 25.3 8.1 30 10.3 21.7 10.1 32 23.6 32 42.2 0 9.5-2.1 14.8-9.1 22.3-10.6 11.6-32 21.9-50.4 24.3-1.6.2-5.7.7-9 1.1-9.1 1.2-38.8.4-41.4-1.1-.3-.2-3-.6-5.9-1-8.1-1-25.6-7-36.3-12.5-10.6-5.3-21.3-12.3-32.9-21.2-12.2-9.4-21.1-12.7-34-12.7-14.4 0-26.4 5.2-36.3 15.7-10.1 10.8-14.7 21.7-14.8 35.1 0 7 .3 8.6 2.5 16.4 4.6 15.6 20.8 32.3 48.6 50 15.5 9.9 45.9 22.8 58.9 25.1 1.9.3 3.7.8 4.1 1 .4.2 2 .7 3.6.9 1.6.3 4 .8 5.4 1.1 10.5 2.1 26.2 4.3 36.5 5.1 8 .5 45.1.5 50-.1 28.9-3.5 45.2-7.4 66.3-15.9 13.1-5.3 21.6-9.8 34.2-18.2 21.5-14.3 37.8-31.6 50.2-53.4 6-10.6 13.1-32.1 14.3-43.7.4-3 .8-6.4 1.1-7.6.6-2.7.6-28.5 0-31.2-.2-1.1-.7-5.4-1.1-9.5-.4-4.1-.9-7.8-1.1-8.1-.2-.3-.6-2.1-.9-4-2.7-16.4-11.5-36.1-22.5-50.4-2.6-3.4-16.3-16.9-20.3-20-13.4-10.5-32.9-20.2-54.7-27.6-10-3.3-29.5-8.7-37-10.3-1.4-.3-3.6-.7-5-1-1.4-.3-3.6-.8-5-1.1-3.8-.8-6.9-1.4-13.5-2.5-3.3-.6-8-1.5-10.5-2s-6.1-1.2-8-1.4c-20.8-2.9-52.1-12.5-65.4-20-14.6-8.3-21-18.6-21-34.1 0-9.9.9-13.4 5.4-20.4 7.5-11.6 23.6-20.7 42.5-24 3.3-.6 7.4-1.3 9-1.6 1.7-.3 9.5-.7 17.5-.9 12.1-.2 16.4.1 26.5 2.1 24.6 5 53 16.3 70.1 28 14.7 10.1 19.8 12 31.2 12.1 13.7 0 25-4.7 35.1-14.9 18-17.9 20.7-44.2 6.7-65.2-13.5-20.3-52.1-43-93.1-54.8-8.8-2.6-13.2-3.5-24.2-5.5-1.6-.3-3.5-.7-4.3-.9-.8-.2-4.6-.7-8.5-1-3.8-.4-8.1-.9-9.5-1.2-2.5-.5-42.7-1.2-43.2-.8zm-574.6 220c-10.2 2.8-20.7 11.5-25.1 20.9-2.9 6.1-3.9 10.8-3.9 17.8.1 15.9 8.3 28.7 23.4 36.3l5.9 3 78.5.2c76.8.2 78.6.2 84.6-1.8 20.3-6.8 31.7-28.7 25.7-49.2-3.7-12.8-14.2-23.3-27.1-27.1-4.7-1.3-15.3-1.5-81-1.5-62.4 0-76.6.3-81 1.4z"/></svg>