<svg xmlns="http://www.w3.org/2000/svg" viewBox="0 0 261.35 273.37"><defs><style>.cls-1{isolation:isolate}.cls-2{opacity:.7;mix-blend-mode:hard-light;fill:url(#linear-gradient)}.cls-3{fill:url(#linear-gradient-2)}.cls-4{mix-blend-mode:soft-light;fill:url(#linear-gradient-3)}</style><linearGradient id="linear-gradient" x1="40.37" y1="137.93" x2="265.82" y2="137.93" gradientTransform="matrix(1.05 0 0 1 -27.49 0)" gradientUnits="userSpaceOnUse"><stop offset="0" stop-color="#73e57b"/><stop offset=".11" stop-color="#73dc7e"/><stop offset=".29" stop-color="#73c487"/><stop offset=".52" stop-color="#739d96"/><stop offset=".79" stop-color="#7468aa"/><stop offset="1" stop-color="#7437bc"/></linearGradient><linearGradient id="linear-gradient-2" x1="261.24" y1="-32.27" x2="43.76" y2="244.7" gradientUnits="userSpaceOnUse"><stop offset="0" stop-color="#fc17f7"/><stop offset="1" stop-color="#1ad99d"/></linearGradient><linearGradient id="linear-gradient-3" y1="141.92" x2="261.35" y2="141.92" gradientUnits="userSpaceOnUse"><stop offset="0" stop-color="#fac739" stop-opacity=".7"/><stop offset=".13" stop-color="#f3c83d" stop-opacity=".71"/><stop offset=".28" stop-color="#decb4a" stop-opacity=".73"/><stop offset=".45" stop-color="#bccf60" stop-opacity=".77"/><stop offset=".62" stop-color="#8cd67d" stop-opacity=".83"/><stop offset=".81" stop-color="#4edea4" stop-opacity=".91"/><stop offset=".99" stop-color="#04e8d2"/><stop offset="1" stop-color="#00e9d4"/></linearGradient></defs><title>Asset 2</title><g class="cls-1"><g id="Layer_2" data-name="Layer 2"><g id="OBJECTS"><path class="cls-2" d="M250.48 174.92a69.74 69.74 0 0 0-.95-11.45s-8.27-64-60.67-115.45a77.89 77.89 0 0 0-112.57 0C24.09 99.33 15.72 163.13 15.67 163.5a69.47 69.47 0 0 0-.95 11.42c0 31.7 21.34 58.63 51 68.37 0 0 47.09 17.25 122.73 2.73 35.29-6.11 62.03-35.62 62.03-71.1z"/><path class="cls-3" d="M196.28 2.05A51 51 0 0 0 185.8.3S126.31-6.09 63.94 41.1h.05c-17.53 12.15-32.18 32.82-39.3 58.39s-5.24 50.79 3.47 70.25c29 72.4 83 97.74 83.32 97.89a50.52 50.52 0 0 0 9.85 3.9c28.17 7.83 58.89-9.9 77-41.43 0 0 30.31-49.56 41.45-139.61 5.76-41.81-11.96-79.67-43.5-88.44z"/><path class="cls-4" d="M240.47 243.15a51.07 51.07 0 0 0 5.65-9.37v.05s28.74-54.59 7.26-132.24c-5-21.41-19.21-43.3-41-59.83s-46.64-24.27-68.58-23.33C63.47 18.64 18.66 60.76 18.4 61a51.73 51.73 0 0 0-7.48 8C-7.29 93-2 129.11 21.32 158.42c0 0 35.94 47.86 117.93 92.76 37.84 21.42 80.83 18.82 101.22-8.03z"/></g></g></g></svg>