<svg xmlns="http://www.w3.org/2000/svg" viewBox="0 0 252 258.64"><defs><style>.cls-1{fill:url(#linear-gradient)}.cls-2{opacity:.7;fill:url(#linear-gradient-2)}.cls-3{opacity:.8;fill:url(#radial-gradient)}</style><linearGradient id="linear-gradient" x1="59.23" y1="345.66" x2="276.25" y2="345.66" gradientTransform="rotate(24.5 643.195 117.577)" gradientUnits="userSpaceOnUse"><stop offset="0" stop-color="#9cdcff"/><stop offset=".13" stop-color="#96d3f8"/><stop offset=".35" stop-color="#84bbe6"/><stop offset=".62" stop-color="#6894c9"/><stop offset=".94" stop-color="#425fa1"/><stop offset="1" stop-color="#395398"/></linearGradient><linearGradient id="linear-gradient-2" x1="47.99" y1="340.17" x2="297.89" y2="340.17" gradientTransform="rotate(-2.45 -4729.5 1372.402)" gradientUnits="userSpaceOnUse"><stop offset="0" stop-color="#b620b4"/><stop offset=".23" stop-color="#ad23b5"/><stop offset=".6" stop-color="#952bb8"/><stop offset="1" stop-color="#7437bc"/></linearGradient><radialGradient id="radial-gradient" cx=".86" cy="258.68" r="337.59" gradientUnits="userSpaceOnUse"><stop offset="0" stop-color="#b620b4"/><stop offset=".16" stop-color="#a227b6"/><stop offset=".45" stop-color="#7437bc"/><stop offset=".58" stop-color="#623fb1"/><stop offset=".85" stop-color="#444e9f"/><stop offset="1" stop-color="#395398"/></radialGradient></defs><title>Asset 31</title><g id="Layer_2" data-name="Layer 2"><g id="OBJECTS"><path class="cls-1" d="M162.56 34.39L51.41 59C9.24 68.28-7 119.76 22.14 151.61l76.85 84c29.16 31.86 81.87 20.21 94.88-21l34.29-108.55c13.01-41.18-23.44-80.99-65.6-71.67z"/><path class="cls-2" d="M124.74 14.8L23.55 98.12C-14.84 129.73-4.61 191 42 208.48l122.76 46c46.56 17.44 94.55-22.08 86.37-71.13L229.52 54c-8.18-49-66.39-70.81-104.78-39.2z"/><path class="cls-3" d="M78.34 46.93l-56.91 98.58c-21.6 37.4 5.39 84.15 48.58 84.15h113.83c43.19 0 70.18-46.75 48.58-84.15l-56.91-98.58c-21.6-37.4-75.57-37.4-97.17 0z"/></g></g></svg>