<svg xmlns="http://www.w3.org/2000/svg" width="1440" height="900"><path d="M798,471L735,358L761,500Z" fill="#f6f6f6" stroke="#f6f6f6" stroke-width="1.51"/><path d="M798,471L809,320L735,358Z" fill="#f7f7f7" stroke="#f7f7f7" stroke-width="1.51"/><path d="M735,358L645,326L761,500Z" fill="#f7f7f7" stroke="#f7f7f7" stroke-width="1.51"/><path d="M685,292L645,326L735,358Z" fill="#f9f9f9" stroke="#f9f9f9" stroke-width="1.51"/><path d="M809,320L685,292L735,358Z" fill="#f8f8f8" stroke="#f8f8f8" stroke-width="1.51"/><path d="M761,500L790,607L798,471Z" fill="#f4f4f4" stroke="#f4f4f4" stroke-width="1.51"/><path d="M950,334L829,255L809,320Z" fill="#f6f6f6" stroke="#f6f6f6" stroke-width="1.51"/><path d="M742,616L790,607L761,500Z" fill="#f2f2f2" stroke="#f2f2f2" stroke-width="1.51"/><path d="M613,648L742,616L761,500Z" fill="#f3f3f3" stroke="#f3f3f3" stroke-width="1.51"/><path d="M809,320L829,255L685,292Z" fill="#f8f8f8" stroke="#f8f8f8" stroke-width="1.51"/><path d="M950,334L809,320L798,471Z" fill="#f5f5f5" stroke="#f5f5f5" stroke-width="1.51"/><path d="M645,326L539,513L761,500Z" fill="#f7f7f7" stroke="#f7f7f7" stroke-width="1.51"/><path d="M685,292L603,267L645,326Z" fill="#f9f9f9" stroke="#f9f9f9" stroke-width="1.51"/><path d="M713,184L603,267L685,292Z" fill="#fafafa" stroke="#fafafa" stroke-width="1.51"/><path d="M508,472L539,513L645,326Z" fill="#f8f8f8" stroke="#f8f8f8" stroke-width="1.51"/><path d="M927,596L948,481L798,471Z" fill="#f1f1f1" stroke="#f1f1f1" stroke-width="1.51"/><path d="M603,267L508,472L645,326Z" fill="#f9f9f9" stroke="#f9f9f9" stroke-width="1.51"/><path d="M948,481L950,334L798,471Z" fill="#f4f4f4" stroke="#f4f4f4" stroke-width="1.51"/><path d="M829,255L713,184L685,292Z" fill="#f9f9f9" stroke="#f9f9f9" stroke-width="1.51"/><path d="M421,706L613,648L539,513Z" fill="#f3f3f3" stroke="#f3f3f3" stroke-width="1.51"/><path d="M539,513L613,648L761,500Z" fill="#f4f4f4" stroke="#f4f4f4" stroke-width="1.51"/><path d="M873,778L927,596L790,607Z" fill="#eeeeee" stroke="#eeeeee" stroke-width="1.51"/><path d="M790,607L927,596L798,471Z" fill="#f1f1f1" stroke="#f1f1f1" stroke-width="1.51"/><path d="M873,778L790,607L742,616Z" fill="#efefef" stroke="#efefef" stroke-width="1.51"/><path d="M829,255L862,160L713,184Z" fill="#f8f8f8" stroke="#f8f8f8" stroke-width="1.51"/><path d="M950,334L942,220L829,255Z" fill="#f5f5f5" stroke="#f5f5f5" stroke-width="1.51"/><path d="M942,220L862,160L829,255Z" fill="#f7f7f7" stroke="#f7f7f7" stroke-width="1.51"/><path d="M508,472L357,578L539,513Z" fill="#f7f7f7" stroke="#f7f7f7" stroke-width="1.51"/><path d="M603,267L437,449L508,472Z" fill="#f9f9f9" stroke="#f9f9f9" stroke-width="1.51"/><path d="M603,267L445,205L437,449Z" fill="#fbfbfb" stroke="#fbfbfb" stroke-width="1.51"/><path d="M713,184L522,179L603,267Z" fill="#fbfbfb" stroke="#fbfbfb" stroke-width="1.51"/><path d="M548,86L522,179L713,184Z" fill="#fbfbfb" stroke="#fbfbfb" stroke-width="1.51"/><path d="M613,648L647,757L742,616Z" fill="#f1f1f1" stroke="#f1f1f1" stroke-width="1.51"/><path d="M498,791L647,757L613,648Z" fill="#efefef" stroke="#efefef" stroke-width="1.51"/><path d="M950,334L1123,264L942,220Z" fill="#f3f3f3" stroke="#f3f3f3" stroke-width="1.51"/><path d="M948,481L1070,360L950,334Z" fill="#f2f2f2" stroke="#f2f2f2" stroke-width="1.51"/><path d="M1136,542L1070,360L948,481Z" fill="#f0f0f0" stroke="#f0f0f0" stroke-width="1.51"/><path d="M647,757L696,781L742,616Z" fill="#efefef" stroke="#efefef" stroke-width="1.51"/><path d="M522,179L445,205L603,267Z" fill="#fbfbfb" stroke="#fbfbfb" stroke-width="1.51"/><path d="M927,596L1136,542L948,481Z" fill="#efefef" stroke="#efefef" stroke-width="1.51"/><path d="M696,781L873,778L742,616Z" fill="#eeeeee" stroke="#eeeeee" stroke-width="1.51"/><path d="M862,160L747,56L713,184Z" fill="#fafafa" stroke="#fafafa" stroke-width="1.51"/><path d="M522,179L461,31L445,205Z" fill="#fdfdfd" stroke="#fdfdfd" stroke-width="1.51"/><path d="M830,-30L747,56L862,160Z" fill="#f5f5f5" stroke="#f5f5f5" stroke-width="1.51"/><path d="M747,56L548,86L713,184Z" fill="#fafafa" stroke="#fafafa" stroke-width="1.51"/><path d="M873,778L1030,709L927,596Z" fill="#ebebeb" stroke="#ebebeb" stroke-width="1.51"/><path d="M1030,709L1071,660L927,596Z" fill="#ebebeb" stroke="#ebebeb" stroke-width="1.51"/><path d="M437,449L357,578L508,472Z" fill="#f8f8f8" stroke="#f8f8f8" stroke-width="1.51"/><path d="M268,401L357,578L437,449Z" fill="#f9f9f9" stroke="#f9f9f9" stroke-width="1.51"/><path d="M696,781L739,839L873,778Z" fill="#ececec" stroke="#ececec" stroke-width="1.51"/><path d="M1126,846L1137,732L1030,709Z" fill="#e6e6e6" stroke="#e6e6e6" stroke-width="1.51"/><path d="M529,853L739,839L696,781Z" fill="#ededed" stroke="#ededed" stroke-width="1.51"/><path d="M529,853L696,781L647,757Z" fill="#eeeeee" stroke="#eeeeee" stroke-width="1.51"/><path d="M1071,660L1136,542L927,596Z" fill="#ececec" stroke="#ececec" stroke-width="1.51"/><path d="M357,578L421,706L539,513Z" fill="#f5f5f5" stroke="#f5f5f5" stroke-width="1.51"/><path d="M1070,360L1123,264L950,334Z" fill="#f2f2f2" stroke="#f2f2f2" stroke-width="1.51"/><path d="M942,220L1041,133L862,160Z" fill="#f6f6f6" stroke="#f6f6f6" stroke-width="1.51"/><path d="M1175,340L1123,264L1070,360Z" fill="#f0f0f0" stroke="#f0f0f0" stroke-width="1.51"/><path d="M1123,264L1041,133L942,220Z" fill="#f4f4f4" stroke="#f4f4f4" stroke-width="1.51"/><path d="M421,706L498,791L613,648Z" fill="#f0f0f0" stroke="#f0f0f0" stroke-width="1.51"/><path d="M474,898L529,853L498,791Z" fill="#eeeeee" stroke="#eeeeee" stroke-width="1.51"/><path d="M357,578L366,654L421,706Z" fill="#f4f4f4" stroke="#f4f4f4" stroke-width="1.51"/><path d="M1121,7L1046,74L1241,90Z" fill="#efefef" stroke="#efefef" stroke-width="1.51"/><path d="M1136,542L1175,340L1070,360Z" fill="#efefef" stroke="#efefef" stroke-width="1.51"/><path d="M292,242L268,401L437,449Z" fill="#fbfbfb" stroke="#fbfbfb" stroke-width="1.51"/><path d="M357,578L213,596L366,654Z" fill="#f6f6f6" stroke="#f6f6f6" stroke-width="1.51"/><path d="M292,242L437,449L445,205Z" fill="#fbfbfb" stroke="#fbfbfb" stroke-width="1.51"/><path d="M474,898L498,791L328,832Z" fill="#efefef" stroke="#efefef" stroke-width="1.51"/><path d="M498,791L529,853L647,757Z" fill="#eeeeee" stroke="#eeeeee" stroke-width="1.51"/><path d="M623,-47L461,31L548,86Z" fill="#f6f6f6" stroke="#f6f6f6" stroke-width="1.51"/><path d="M984,-21L830,-30L862,160Z" fill="#f2f2f2" stroke="#f2f2f2" stroke-width="1.51"/><path d="M1041,133L1046,74L862,160Z" fill="#f6f6f6" stroke="#f6f6f6" stroke-width="1.51"/><path d="M1255,193L1041,133L1123,264Z" fill="#f2f2f2" stroke="#f2f2f2" stroke-width="1.51"/><path d="M314,130L292,242L445,205Z" fill="#fdfdfd" stroke="#fdfdfd" stroke-width="1.51"/><path d="M548,86L461,31L522,179Z" fill="#fbfbfb" stroke="#fbfbfb" stroke-width="1.51"/><path d="M623,-47L548,86L747,56Z" fill="#f6f6f6" stroke="#f6f6f6" stroke-width="1.51"/><path d="M830,-30L623,-47L747,56Z" fill="#f3f3f3" stroke="#f3f3f3" stroke-width="1.51"/><path d="M1136,542L1278,458L1175,340Z" fill="#ededed" stroke="#ededed" stroke-width="1.51"/><path d="M1071,660L1261,607L1136,542Z" fill="#eaeaea" stroke="#eaeaea" stroke-width="1.51"/><path d="M1030,709L1137,732L1071,660Z" fill="#e8e8e8" stroke="#e8e8e8" stroke-width="1.51"/><path d="M1126,846L1030,709L991,955Z" fill="#e6e6e6" stroke="#e6e6e6" stroke-width="1.51"/><path d="M739,839L847,922L873,778Z" fill="#eaeaea" stroke="#eaeaea" stroke-width="1.51"/><path d="M818,987L847,922L739,839Z" fill="#eaeaea" stroke="#eaeaea" stroke-width="1.51"/><path d="M66,412L235,522L268,401Z" fill="#f9f9f9" stroke="#f9f9f9" stroke-width="1.51"/><path d="M268,401L235,522L357,578Z" fill="#f9f9f9" stroke="#f9f9f9" stroke-width="1.51"/><path d="M328,832L498,791L421,706Z" fill="#f0f0f0" stroke="#f0f0f0" stroke-width="1.51"/><path d="M292,242L232,348L268,401Z" fill="#fcfcfc" stroke="#fcfcfc" stroke-width="1.51"/><path d="M1046,74L984,-21L862,160Z" fill="#f3f3f3" stroke="#f3f3f3" stroke-width="1.51"/><path d="M666,-148L583,-99L623,-47Z" fill="#efefef" stroke="#efefef" stroke-width="1.51"/><path d="M461,31L314,130L445,205Z" fill="#fdfdfd" stroke="#fdfdfd" stroke-width="1.51"/><path d="M292,242L205,271L232,348Z" fill="#fdfdfd" stroke="#fdfdfd" stroke-width="1.51"/><path d="M702,1074L818,987L739,839Z" fill="#eaeaea" stroke="#eaeaea" stroke-width="1.51"/><path d="M328,832L421,706L366,654Z" fill="#f2f2f2" stroke="#f2f2f2" stroke-width="1.51"/><path d="M1261,607L1278,458L1136,542Z" fill="#ebebeb" stroke="#ebebeb" stroke-width="1.51"/><path d="M1175,340L1255,193L1123,264Z" fill="#f0f0f0" stroke="#f0f0f0" stroke-width="1.51"/><path d="M235,522L213,596L357,578Z" fill="#f7f7f7" stroke="#f7f7f7" stroke-width="1.51"/><path d="M92,601L213,596L235,522Z" fill="#f5f5f5" stroke="#f5f5f5" stroke-width="1.51"/><path d="M623,-47L583,-99L461,31Z" fill="#f3f3f3" stroke="#f3f3f3" stroke-width="1.51"/><path d="M228,-36L203,148L314,130Z" fill="#fcfcfc" stroke="#fcfcfc" stroke-width="1.51"/><path d="M666,-148L623,-47L830,-30Z" fill="#efefef" stroke="#efefef" stroke-width="1.51"/><path d="M1137,732L1261,607L1071,660Z" fill="#e8e8e8" stroke="#e8e8e8" stroke-width="1.51"/><path d="M46,532L92,601L235,522Z" fill="#f4f4f4" stroke="#f4f4f4" stroke-width="1.51"/><path d="M203,148L205,271L292,242Z" fill="#fefefe" stroke="#fefefe" stroke-width="1.51"/><path d="M991,955L1030,709L873,778Z" fill="#e8e8e8" stroke="#e8e8e8" stroke-width="1.51"/><path d="M576,1026L739,839L529,853Z" fill="#ececec" stroke="#ececec" stroke-width="1.51"/><path d="M991,955L873,778L847,922Z" fill="#e8e8e8" stroke="#e8e8e8" stroke-width="1.51"/><path d="M1137,732L1277,767L1261,607Z" fill="#e6e6e6" stroke="#e6e6e6" stroke-width="1.51"/><path d="M1430,267L1255,193L1175,340Z" fill="#efefef" stroke="#efefef" stroke-width="1.51"/><path d="M1046,74L1121,7L984,-21Z" fill="#eeeeee" stroke="#eeeeee" stroke-width="1.51"/><path d="M1241,90L1046,74L1041,133Z" fill="#f2f2f2" stroke="#f2f2f2" stroke-width="1.51"/><path d="M189,838L328,832L366,654Z" fill="#f1f1f1" stroke="#f1f1f1" stroke-width="1.51"/><path d="M818,987L991,955L847,922Z" fill="#e7e7e7" stroke="#e7e7e7" stroke-width="1.51"/><path d="M905,-163L830,-30L984,-21Z" fill="#ececec" stroke="#ececec" stroke-width="1.51"/><path d="M905,-163L666,-148L830,-30Z" fill="#ececec" stroke="#ececec" stroke-width="1.51"/><path d="M314,130L203,148L292,242Z" fill="#fefefe" stroke="#fefefe" stroke-width="1.51"/><path d="M351,-56L314,130L461,31Z" fill="#f8f8f8" stroke="#f8f8f8" stroke-width="1.51"/><path d="M1255,193L1241,90L1041,133Z" fill="#f2f2f2" stroke="#f2f2f2" stroke-width="1.51"/><path d="M474,898L576,1026L529,853Z" fill="#ececec" stroke="#ececec" stroke-width="1.51"/><path d="M434,1058L576,1026L474,898Z" fill="#ececec" stroke="#ececec" stroke-width="1.51"/><path d="M969,-162L905,-163L984,-21Z" fill="#e8e8e8" stroke="#e8e8e8" stroke-width="1.51"/><path d="M969,-162L984,-21L1062,-129Z" fill="#e8e8e8" stroke="#e8e8e8" stroke-width="1.51"/><path d="M1130,1041L1192,849L1126,846Z" fill="#e3e3e3" stroke="#e3e3e3" stroke-width="1.51"/><path d="M1126,846L1192,849L1137,732Z" fill="#e4e4e4" stroke="#e4e4e4" stroke-width="1.51"/><path d="M402,-165L461,31L583,-99Z" fill="#f1f1f1" stroke="#f1f1f1" stroke-width="1.51"/><path d="M402,-165L351,-56L461,31Z" fill="#f2f2f2" stroke="#f2f2f2" stroke-width="1.51"/><path d="M1278,458L1359,443L1175,340Z" fill="#ededed" stroke="#ededed" stroke-width="1.51"/><path d="M1255,193L1358,113L1241,90Z" fill="#f0f0f0" stroke="#f0f0f0" stroke-width="1.51"/><path d="M1399,527L1359,443L1278,458Z" fill="#ebebeb" stroke="#ebebeb" stroke-width="1.51"/><path d="M1399,527L1278,458L1261,607Z" fill="#eaeaea" stroke="#eaeaea" stroke-width="1.51"/><path d="M328,832L362,930L474,898Z" fill="#eeeeee" stroke="#eeeeee" stroke-width="1.51"/><path d="M189,838L362,930L328,832Z" fill="#efefef" stroke="#efefef" stroke-width="1.51"/><path d="M702,1074L1025,991L818,987Z" fill="#e7e7e7" stroke="#e7e7e7" stroke-width="1.51"/><path d="M818,987L1025,991L991,955Z" fill="#e6e6e6" stroke="#e6e6e6" stroke-width="1.51"/><path d="M991,955L1025,991L1126,846Z" fill="#e4e4e4" stroke="#e4e4e4" stroke-width="1.51"/><path d="M1192,849L1277,767L1137,732Z" fill="#e4e4e4" stroke="#e4e4e4" stroke-width="1.51"/><path d="M1062,-129L984,-21L1121,7Z" fill="#eaeaea" stroke="#eaeaea" stroke-width="1.51"/><path d="M576,1026L702,1074L739,839Z" fill="#ebebeb" stroke="#ebebeb" stroke-width="1.51"/><path d="M1192,-96L1062,-129L1121,7Z" fill="#e7e7e7" stroke="#e7e7e7" stroke-width="1.51"/><path d="M213,596L189,838L366,654Z" fill="#f4f4f4" stroke="#f4f4f4" stroke-width="1.51"/><path d="M66,412L268,401L232,348Z" fill="#fafafa" stroke="#fafafa" stroke-width="1.51"/><path d="M66,412L232,348L205,271Z" fill="#fafafa" stroke="#fafafa" stroke-width="1.51"/><path d="M1345,14L1223,-63L1241,90Z" fill="#eaeaea" stroke="#eaeaea" stroke-width="1.51"/><path d="M1363,702L1399,527L1261,607Z" fill="#e7e7e7" stroke="#e7e7e7" stroke-width="1.51"/><path d="M61,232L66,412L205,271Z" fill="#f8f8f8" stroke="#f8f8f8" stroke-width="1.51"/><path d="M203,148L128,140L205,271Z" fill="#fcfcfc" stroke="#fcfcfc" stroke-width="1.51"/><path d="M228,-36L128,140L203,148Z" fill="#fafafa" stroke="#fafafa" stroke-width="1.51"/><path d="M1277,767L1363,702L1261,607Z" fill="#e5e5e5" stroke="#e5e5e5" stroke-width="1.51"/><path d="M1371,715L1363,702L1277,767Z" fill="#e4e4e4" stroke="#e4e4e4" stroke-width="1.51"/><path d="M46,749L189,838L213,596Z" fill="#efefef" stroke="#efefef" stroke-width="1.51"/><path d="M666,-148L402,-165L583,-99Z" fill="#ededed" stroke="#ededed" stroke-width="1.51"/><path d="M351,-56L228,-36L314,130Z" fill="#f8f8f8" stroke="#f8f8f8" stroke-width="1.51"/><path d="M905,-163L402,-165L666,-148Z" fill="#ebebeb" stroke="#ebebeb" stroke-width="1.51"/><path d="M227,-74L228,-36L351,-56Z" fill="#f4f4f4" stroke="#f4f4f4" stroke-width="1.51"/><path d="M1358,113L1255,193L1430,267Z" fill="#efefef" stroke="#efefef" stroke-width="1.51"/><path d="M1241,90L1223,-63L1121,7Z" fill="#ebebeb" stroke="#ebebeb" stroke-width="1.51"/><path d="M1487,700L1507,554L1399,527Z" fill="#e7e7e7" stroke="#e7e7e7" stroke-width="1.51"/><path d="M1359,932L1371,715L1277,767Z" fill="#e2e2e2" stroke="#e2e2e2" stroke-width="1.51"/><path d="M1359,932L1277,767L1192,849Z" fill="#e2e2e2" stroke="#e2e2e2" stroke-width="1.51"/><path d="M576,1026L434,1058L702,1074Z" fill="#eaeaea" stroke="#eaeaea" stroke-width="1.51"/><path d="M362,930L434,1058L474,898Z" fill="#ededed" stroke="#ededed" stroke-width="1.51"/><path d="M319,1023L434,1058L362,930Z" fill="#ededed" stroke="#ededed" stroke-width="1.51"/><path d="M1223,-63L1192,-96L1121,7Z" fill="#e8e8e8" stroke="#e8e8e8" stroke-width="1.51"/><path d="M1062,-129L1358,-183L969,-162Z" fill="#e3e3e3" stroke="#e3e3e3" stroke-width="1.51"/><path d="M1430,267L1175,340L1359,443Z" fill="#ededed" stroke="#ededed" stroke-width="1.51"/><path d="M46,749L137,881L189,838Z" fill="#ececec" stroke="#ececec" stroke-width="1.51"/><path d="M66,412L46,532L235,522Z" fill="#f5f5f5" stroke="#f5f5f5" stroke-width="1.51"/><path d="M66,412L-19,538L46,532Z" fill="#f1f1f1" stroke="#f1f1f1" stroke-width="1.51"/><path d="M128,140L61,232L205,271Z" fill="#fafafa" stroke="#fafafa" stroke-width="1.51"/><path d="M-86,234L61,232L-59,66Z" fill="#f4f4f4" stroke="#f4f4f4" stroke-width="1.51"/><path d="M1461,419L1430,267L1359,443Z" fill="#ececec" stroke="#ececec" stroke-width="1.51"/><path d="M228,-36L125,-78L128,140Z" fill="#f5f5f5" stroke="#f5f5f5" stroke-width="1.51"/><path d="M300,-152L227,-74L351,-56Z" fill="#f2f2f2" stroke="#f2f2f2" stroke-width="1.51"/><path d="M1399,527L1461,419L1359,443Z" fill="#ebebeb" stroke="#ebebeb" stroke-width="1.51"/><path d="M1507,554L1461,419L1399,527Z" fill="#e9e9e9" stroke="#e9e9e9" stroke-width="1.51"/><path d="M189,838L319,1023L362,930Z" fill="#eeeeee" stroke="#eeeeee" stroke-width="1.51"/><path d="M1025,991L1130,1041L1126,846Z" fill="#e3e3e3" stroke="#e3e3e3" stroke-width="1.51"/><path d="M702,1074L1130,1041L1025,991Z" fill="#e5e5e5" stroke="#e5e5e5" stroke-width="1.51"/><path d="M402,-165L300,-152L351,-56Z" fill="#efefef" stroke="#efefef" stroke-width="1.51"/><path d="M1493,28L1345,14L1358,113Z" fill="#ebebeb" stroke="#ebebeb" stroke-width="1.51"/><path d="M1358,113L1345,14L1241,90Z" fill="#ededed" stroke="#ededed" stroke-width="1.51"/><path d="M1223,-63L1358,-183L1192,-96Z" fill="#e3e3e3" stroke="#e3e3e3" stroke-width="1.51"/><path d="M189,838L137,881L319,1023Z" fill="#efefef" stroke="#efefef" stroke-width="1.51"/><path d="M46,749L213,596L92,601Z" fill="#f0f0f0" stroke="#f0f0f0" stroke-width="1.51"/><path d="M-116,666L46,749L92,601Z" fill="#ececec" stroke="#ececec" stroke-width="1.51"/><path d="M46,532L-19,538L92,601Z" fill="#f0f0f0" stroke="#f0f0f0" stroke-width="1.51"/><path d="M-42,387L-19,538L66,412Z" fill="#f2f2f2" stroke="#f2f2f2" stroke-width="1.51"/><path d="M1130,1041L1252,1014L1192,849Z" fill="#e1e1e1" stroke="#e1e1e1" stroke-width="1.51"/><path d="M1461,419L1525,310L1430,267Z" fill="#ececec" stroke="#ececec" stroke-width="1.51"/><path d="M1487,700L1399,527L1363,702Z" fill="#e6e6e6" stroke="#e6e6e6" stroke-width="1.51"/><path d="M1487,700L1363,702L1371,715Z" fill="#e4e4e4" stroke="#e4e4e4" stroke-width="1.51"/><path d="M61,232L-42,387L66,412Z" fill="#f4f4f4" stroke="#f4f4f4" stroke-width="1.51"/><path d="M-86,234L-42,387L61,232Z" fill="#f3f3f3" stroke="#f3f3f3" stroke-width="1.51"/><path d="M46,749L95,884L137,881Z" fill="#ebebeb" stroke="#ebebeb" stroke-width="1.51"/><path d="M137,881L154,1072L319,1023Z" fill="#ededed" stroke="#ededed" stroke-width="1.51"/><path d="M227,-74L125,-78L228,-36Z" fill="#f2f2f2" stroke="#f2f2f2" stroke-width="1.51"/><path d="M300,-152L125,-78L227,-74Z" fill="#f1f1f1" stroke="#f1f1f1" stroke-width="1.51"/><path d="M1522,824L1487,700L1371,715Z" fill="#e2e2e2" stroke="#e2e2e2" stroke-width="1.51"/><path d="M1573,379L1525,310L1461,419Z" fill="#ebebeb" stroke="#ebebeb" stroke-width="1.51"/><path d="M1430,267L1500,157L1358,113Z" fill="#eeeeee" stroke="#eeeeee" stroke-width="1.51"/><path d="M1252,1014L1359,932L1192,849Z" fill="#e1e1e1" stroke="#e1e1e1" stroke-width="1.51"/><path d="M1525,310L1500,157L1430,267Z" fill="#ededed" stroke="#ededed" stroke-width="1.51"/><path d="M1525,310L1595,190L1500,157Z" fill="#ededed" stroke="#ededed" stroke-width="1.51"/><path d="M1507,554L1573,379L1461,419Z" fill="#eaeaea" stroke="#eaeaea" stroke-width="1.51"/><path d="M1689,522L1573,379L1507,554Z" fill="#e8e8e8" stroke="#e8e8e8" stroke-width="1.51"/><path d="M-116,666L92,601L-19,538Z" fill="#ededed" stroke="#ededed" stroke-width="1.51"/><path d="M-59,66L61,232L128,140Z" fill="#f7f7f7" stroke="#f7f7f7" stroke-width="1.51"/><path d="M1500,157L1493,28L1358,113Z" fill="#ededed" stroke="#ededed" stroke-width="1.51"/><path d="M1345,14L1358,-183L1223,-63Z" fill="#e5e5e5" stroke="#e5e5e5" stroke-width="1.51"/><path d="M1594,58L1493,28L1500,157Z" fill="#ebebeb" stroke="#ebebeb" stroke-width="1.51"/><path d="M1252,1014L1408,970L1359,932Z" fill="#dfdfdf" stroke="#dfdfdf" stroke-width="1.51"/><path d="M1359,932L1522,824L1371,715Z" fill="#e1e1e1" stroke="#e1e1e1" stroke-width="1.51"/><path d="M126,1058L137,881L95,884Z" fill="#eaeaea" stroke="#eaeaea" stroke-width="1.51"/><path d="M126,1058L154,1072L137,881Z" fill="#eaeaea" stroke="#eaeaea" stroke-width="1.51"/><path d="M319,1023L154,1072L434,1058Z" fill="#ececec" stroke="#ececec" stroke-width="1.51"/><path d="M434,1058L154,1072L702,1074Z" fill="#ebebeb" stroke="#ebebeb" stroke-width="1.51"/><path d="M46,749L-41,818L95,884Z" fill="#e9e9e9" stroke="#e9e9e9" stroke-width="1.51"/><path d="M-116,666L-41,818L46,749Z" fill="#e8e8e8" stroke="#e8e8e8" stroke-width="1.51"/><path d="M-116,666L-19,538L-144,621Z" fill="#eaeaea" stroke="#eaeaea" stroke-width="1.51"/><path d="M1500,-98L1358,-183L1345,14Z" fill="#e3e3e3" stroke="#e3e3e3" stroke-width="1.51"/><path d="M1192,-96L1358,-183L1062,-129Z" fill="#e2e2e2" stroke="#e2e2e2" stroke-width="1.51"/><path d="M969,-162L1358,-183L905,-163Z" fill="#e3e3e3" stroke="#e3e3e3" stroke-width="1.51"/><path d="M905,-163L1358,-183L402,-165Z" fill="#e6e6e6" stroke="#e6e6e6" stroke-width="1.51"/><path d="M125,-78L10,-54L128,140Z" fill="#f2f2f2" stroke="#f2f2f2" stroke-width="1.51"/><path d="M-52,-100L10,-54L125,-78Z" fill="#ebebeb" stroke="#ebebeb" stroke-width="1.51"/><path d="M-13,934L126,1058L95,884Z" fill="#e8e8e8" stroke="#e8e8e8" stroke-width="1.51"/><path d="M10,-54L-59,66L128,140Z" fill="#f2f2f2" stroke="#f2f2f2" stroke-width="1.51"/><path d="M1529,870L1522,824L1359,932Z" fill="#e0e0e0" stroke="#e0e0e0" stroke-width="1.51"/><path d="M1487,700L1623,631L1507,554Z" fill="#e5e5e5" stroke="#e5e5e5" stroke-width="1.51"/><path d="M-151,495L-19,538L-42,387Z" fill="#efefef" stroke="#efefef" stroke-width="1.51"/><path d="M-86,234L-203,322L-42,387Z" fill="#efefef" stroke="#efefef" stroke-width="1.51"/><path d="M-59,66L-129,226L-86,234Z" fill="#f2f2f2" stroke="#f2f2f2" stroke-width="1.51"/><path d="M-203,322L-151,495L-42,387Z" fill="#ededed" stroke="#ededed" stroke-width="1.51"/><path d="M1655,202L1525,310L1573,379Z" fill="#ebebeb" stroke="#ebebeb" stroke-width="1.51"/><path d="M1655,202L1595,190L1525,310Z" fill="#ececec" stroke="#ececec" stroke-width="1.51"/><path d="M1522,824L1587,717L1487,700Z" fill="#e1e1e1" stroke="#e1e1e1" stroke-width="1.51"/><path d="M-151,495L-144,621L-19,538Z" fill="#ebebeb" stroke="#ebebeb" stroke-width="1.51"/><path d="M-100,1026L-13,934L-252,881Z" fill="#e1e1e1" stroke="#e1e1e1" stroke-width="1.51"/><path d="M-41,818L-13,934L95,884Z" fill="#e7e7e7" stroke="#e7e7e7" stroke-width="1.51"/><path d="M-204,741L-41,818L-116,666Z" fill="#e5e5e5" stroke="#e5e5e5" stroke-width="1.51"/><path d="M1522,824L1615,851L1587,717Z" fill="#dfdfdf" stroke="#dfdfdf" stroke-width="1.51"/><path d="M1408,970L1529,870L1359,932Z" fill="#dfdfdf" stroke="#dfdfdf" stroke-width="1.51"/><path d="M1689,522L1711,637L1722,507Z" fill="#e5e5e5" stroke="#e5e5e5" stroke-width="1.51"/><path d="M1587,717L1623,631L1487,700Z" fill="#e3e3e3" stroke="#e3e3e3" stroke-width="1.51"/><path d="M1594,58L1500,-98L1493,28Z" fill="#e6e6e6" stroke="#e6e6e6" stroke-width="1.51"/><path d="M1493,28L1500,-98L1345,14Z" fill="#e6e6e6" stroke="#e6e6e6" stroke-width="1.51"/><path d="M1595,190L1594,58L1500,157Z" fill="#eeeeee" stroke="#eeeeee" stroke-width="1.51"/><path d="M1655,202L1594,58L1595,190Z" fill="#ededed" stroke="#ededed" stroke-width="1.51"/><path d="M-59,66L-250,102L-129,226Z" fill="#f0f0f0" stroke="#f0f0f0" stroke-width="1.51"/><path d="M10,-54L-82,-27L-59,66Z" fill="#ededed" stroke="#ededed" stroke-width="1.51"/><path d="M-52,-100L-82,-27L10,-54Z" fill="#eaeaea" stroke="#eaeaea" stroke-width="1.51"/><path d="M-129,226L-203,322L-86,234Z" fill="#efefef" stroke="#efefef" stroke-width="1.51"/><path d="M-151,495L-204,741L-144,621Z" fill="#e6e6e6" stroke="#e6e6e6" stroke-width="1.51"/><path d="M-250,102L-203,322L-129,226Z" fill="#ededed" stroke="#ededed" stroke-width="1.51"/><path d="M1694,220L1655,202L1573,379Z" fill="#ebebeb" stroke="#ebebeb" stroke-width="1.51"/><path d="M300,-152L-52,-100L125,-78Z" fill="#ededed" stroke="#ededed" stroke-width="1.51"/><path d="M1623,631L1689,522L1507,554Z" fill="#e6e6e6" stroke="#e6e6e6" stroke-width="1.51"/><path d="M1711,637L1623,631L1587,717Z" fill="#e3e3e3" stroke="#e3e3e3" stroke-width="1.51"/><path d="M1529,870L1615,851L1522,824Z" fill="#dfdfdf" stroke="#dfdfdf" stroke-width="1.51"/><path d="M1607,1003L1615,851L1529,870Z" fill="#dedede" stroke="#dedede" stroke-width="1.51"/><path d="M1655,202L1726,28L1594,58Z" fill="#ebebeb" stroke="#ebebeb" stroke-width="1.51"/><path d="M1594,58L1622,-135L1500,-98Z" fill="#e3e3e3" stroke="#e3e3e3" stroke-width="1.51"/><path d="M1758,419L1694,220L1573,379Z" fill="#eaeaea" stroke="#eaeaea" stroke-width="1.51"/><path d="M1689,522L1758,419L1573,379Z" fill="#e8e8e8" stroke="#e8e8e8" stroke-width="1.51"/><path d="M1711,637L1689,522L1623,631Z" fill="#e4e4e4" stroke="#e4e4e4" stroke-width="1.51"/><path d="M-144,621L-204,741L-116,666Z" fill="#e5e5e5" stroke="#e5e5e5" stroke-width="1.51"/><path d="M-203,322L-204,741L-151,495Z" fill="#e9e9e9" stroke="#e9e9e9" stroke-width="1.51"/><path d="M1799,812L1711,637L1587,717Z" fill="#e0e0e0" stroke="#e0e0e0" stroke-width="1.51"/><path d="M1252,1014L1482,1096L1408,970Z" fill="#dedede" stroke="#dedede" stroke-width="1.51"/><path d="M1408,970L1607,1003L1529,870Z" fill="#dedede" stroke="#dedede" stroke-width="1.51"/><path d="M1130,1041L1482,1096L1252,1014Z" fill="#dedede" stroke="#dedede" stroke-width="1.51"/><path d="M702,1074L1482,1096L1130,1041Z" fill="#e1e1e1" stroke="#e1e1e1" stroke-width="1.51"/><path d="M-233,1089L1482,1096L702,1074Z" fill="#e9e9e9" stroke="#e9e9e9" stroke-width="1.51"/><path d="M-169,-70L-185,-4L-82,-27Z" fill="#e7e7e7" stroke="#e7e7e7" stroke-width="1.51"/><path d="M-82,-27L-185,-4L-59,66Z" fill="#ebebeb" stroke="#ebebeb" stroke-width="1.51"/><path d="M1722,507L1758,419L1689,522Z" fill="#e7e7e7" stroke="#e7e7e7" stroke-width="1.51"/><path d="M1799,812L1758,419L1722,507Z" fill="#e4e4e4" stroke="#e4e4e4" stroke-width="1.51"/><path d="M-252,881L-13,934L-41,818Z" fill="#e3e3e3" stroke="#e3e3e3" stroke-width="1.51"/><path d="M-13,934L-100,1026L126,1058Z" fill="#e5e5e5" stroke="#e5e5e5" stroke-width="1.51"/><path d="M126,1058L-233,1089L154,1072Z" fill="#e4e4e4" stroke="#e4e4e4" stroke-width="1.51"/><path d="M-52,-100L-169,-70L-82,-27Z" fill="#e7e7e7" stroke="#e7e7e7" stroke-width="1.51"/><path d="M-203,322L-252,881L-204,741Z" fill="#e3e3e3" stroke="#e3e3e3" stroke-width="1.51"/><path d="M-185,-4L-250,102L-59,66Z" fill="#ececec" stroke="#ececec" stroke-width="1.51"/><path d="M-169,-70L-250,102L-185,-4Z" fill="#e8e8e8" stroke="#e8e8e8" stroke-width="1.51"/><path d="M1482,1096L1607,1003L1408,970Z" fill="#dddddd" stroke="#dddddd" stroke-width="1.51"/><path d="M1615,851L1799,812L1587,717Z" fill="#dfdfdf" stroke="#dfdfdf" stroke-width="1.51"/><path d="M1701,-73L1622,-135L1594,58Z" fill="#e3e3e3" stroke="#e3e3e3" stroke-width="1.51"/><path d="M1500,-98L1622,-135L1358,-183Z" fill="#dfdfdf" stroke="#dfdfdf" stroke-width="1.51"/><path d="M1759,181L1655,202L1694,220Z" fill="#ebebeb" stroke="#ebebeb" stroke-width="1.51"/><path d="M1758,419L1759,181L1694,220Z" fill="#eaeaea" stroke="#eaeaea" stroke-width="1.51"/><path d="M1759,181L1726,28L1655,202Z" fill="#ececec" stroke="#ececec" stroke-width="1.51"/><path d="M-250,102L-252,881L-203,322Z" fill="#e9e9e9" stroke="#e9e9e9" stroke-width="1.51"/><path d="M-204,741L-252,881L-41,818Z" fill="#e1e1e1" stroke="#e1e1e1" stroke-width="1.51"/><path d="M1726,28L1701,-73L1594,58Z" fill="#e5e5e5" stroke="#e5e5e5" stroke-width="1.51"/><path d="M1769,933L1799,812L1615,851Z" fill="#dddddd" stroke="#dddddd" stroke-width="1.51"/><path d="M1711,637L1799,812L1722,507Z" fill="#e2e2e2" stroke="#e2e2e2" stroke-width="1.51"/><path d="M1758,419L1799,812L1759,181Z" fill="#e8e8e8" stroke="#e8e8e8" stroke-width="1.51"/><path d="M1607,1003L1769,933L1615,851Z" fill="#dddddd" stroke="#dddddd" stroke-width="1.51"/><path d="M1803,1049L1769,933L1607,1003Z" fill="#dbdbdb" stroke="#dbdbdb" stroke-width="1.51"/><path d="M-252,881L-233,1089L-100,1026Z" fill="#dddddd" stroke="#dddddd" stroke-width="1.51"/><path d="M-100,1026L-233,1089L126,1058Z" fill="#e1e1e1" stroke="#e1e1e1" stroke-width="1.51"/><path d="M154,1072L-233,1089L702,1074Z" fill="#ececec" stroke="#ececec" stroke-width="1.51"/><path d="M1769,933L1803,1049L1799,812Z" fill="#dcdcdc" stroke="#dcdcdc" stroke-width="1.51"/><path d="M1482,1096L1803,1049L1607,1003Z" fill="#dbdbdb" stroke="#dbdbdb" stroke-width="1.51"/></svg>