<?xml version="1.0" encoding="UTF-8"?>
<svg viewBox="0 0 1800 50" version="1.1" xmlns="http://www.w3.org/2000/svg" xmlns:xlink="http://www.w3.org/1999/xlink" preserveAspectRatio="none">
    <path fill="#FFFFFF" d="M9.2148511e-15,30 L9.2148511e-15,0 L1800,0 L1800,30 C1760,30 1740,0 1700,0 C1660,0 1640,30 1600,30 C1560,30 1540,0 1500,0 C1460,0 1440,30 1400,30 C1360,30 1340,0 1300,0 C1260,0 1240,30 1200,30 C1160,30 1140,0 1100,0 C1060,0 1040,30 1000,30 C960,30 940,0 900,0 C860,0 840,30 800,30 C760,30 740,0 700,0 C660,0 640,30 600,30 C560,30 540,0 500,0 C460,0 440,30 400,30 C360,30 340,0 300,0 C260,0 240,30 200,30 C160,30 140,0 100,0 C60,0 40,30 9.2148511e-15,30 Z" id="waves-copy-2"></path>
</svg>