<?xml version="1.0" encoding="UTF-8"?>
<svg viewBox="0 0 1800 50" version="1.1" xmlns="http://www.w3.org/2000/svg" xmlns:xlink="http://www.w3.org/1999/xlink" preserveAspectRatio="none">
    <path fill="#FFFFFF" d="M9.2148511e-15,20 C40,20 60,50 100,50 C140,50 160,20 200,20 C240,20 260,50 300,50 C340,50 360,20 400,20 C440,20 460,50 500,50 C540,50 560,20 600,20 C640,20 660,50 700,50 C740,50 760,20 800,20 C840,20 860,50 900,50 C940,50 960,20 1000,20 C1040,20 1060,50 1100,50 C1140,50 1160,20 1200,20 C1240,20 1260,50 1300,50 C1340,50 1360,20 1400,20 C1440,20 1460,50 1500,50 C1540,50 1560,20 1600,20 C1640,20 1660,50 1700,50 C1740,50 1760,20 1800,20 L1800,50 L9.2148511e-15,50 L9.2148511e-15,20 Z" id="waves-copy-2"></path>
</svg>