<svg xmlns="http://www.w3.org/2000/svg" viewBox="0 0 139.04 151.41"><defs><style>.cls-1{fill:#6fc1ef}.cls-1,.cls-2,.cls-3,.cls-4,.cls-5,.cls-6,.cls-7{fill-rule:evenodd}.cls-2{fill:#7bc5f8}.cls-3{fill:#c2ecff}.cls-4{fill:#9cdcff}.cls-5{fill:#e1f7ff}.cls-6{fill:#60a7c6}.cls-7{fill:#afe5f9}.cls-8{fill:#fff}</style></defs><title>Asset 2</title><g id="Layer_2" data-name="Layer 2"><g id="Layer_1-2" data-name="Layer 1"><path class="cls-1" d="M50.08 149.13c-8.62-12.24-29.62-7.44-34.42-25-2-3-5.25-4.77-7.11-7.9-2.85-4.81-3.92-10.15 1.34-13.17 7.41-4.26 11.78-.6 13.13 7.13 1.68-7-1.11-13.65-3.21-20.39-6.75-21.66 7.07-52.9 27.9-62.8 1.88-.9 4.18 0 6.1 1 8.1 11-1.12 20.07-3.39 29.92-2.52 10.93-8.32 22.63 6.65 29.39 14.52 6.55 31.77.75 38.53-13 7-14.32-2-22.66-12-30.35-9-6.94-22.12-6.36-29.71-16C55.93 14.64 65.66 15.62 75 17c29.17 4.38 50.58 33 47.89 63.7-1.82 20.91-30.17 39.7-61.24 40.11 8.74 6.35 15.93 13 10.56 24.72-7.08 3.02-13.68 9.04-22.13 3.6z"/><path class="cls-2" d="M71.62 144.49C70.14 127.8 59.36 121.77 44 122c.85-9.52 7.16-7.65 11.11-6.25 11 3.94 22.69 1.26 30.85-3.18 14.66-8 34.9-15 31.64-37.8-5.09-35.55-22.79-53.87-49.5-54.21-6.51-.08-10.88 2.65-13.6 8.4-25.09 12.89-35.84 37.79-27.12 62.63a21.8 21.8 0 0 1 1.22 6.18c.19 4.2.06 8.41.06 12.32-8 4.08-11.06-9.88-16.6-4.83-7.06 6.41 3.46 12.24 3.6 18.89C-2.11 119.4-2.26 107.44 3 93.25c6.86-12 10.15-24.75 8.75-38.59L15 50.05c10.3-8.18 10.66-22.31 18.92-31.73 15.13-9 32.71-10.48 49-10.89 18-.45 29.39 14.82 39.72 28.61 9.35 22.2 16.75 44.56 5.07 68.35C112.46 118.22 95.53 130 79.59 143c-2.4 1.8-4.86 3.48-7.97 1.49z"/><path class="cls-3" d="M123.19 101.87c13.9-9.66 4.32-22.88 4.11-34.07-.19-10.14-5.48-20.19-8.52-30.28-2.6-9.72-9-18.89-4.25-29.65l8.58-.32c10.11 14.1 5.47 32.26 12.94 47.1 8.17 21.35-3.15 42.35-1.42 63.69.41 5.17-7.52 5.44-11.92 7.14-8.46 3.27-16.45 5.19-20 16.17-2.75 8.4-42.16 12.71-52.58 7.48l21.53-4.64 4.38-4c18.27-7.37 30.13-17.09 47.15-38.62z"/><path class="cls-4" d="M114.53 7.87c6.17 9.19 3.92 19.61 4.25 29.65-18.11-20.67-37.2-37-66.92-19.71-5 3-12.44 1.83-18.74 2.6l-1.77-1.84c-.87-2.62-.57-4.94 1.79-6.7 8-8.57 16.71-14.22 28.68-7.09 6.39 3.81 12.09-.11 18.31-1.35 11.65-2.32 24.44-8.27 34.4 4.44z"/><path class="cls-5" d="M136.05 54.65c-12.56-13.44-11.7-30.56-12.94-47.1 13.29-.63 16.52 6.09 14.6 18.26-1.49 9.46-1.17 19.19-1.66 28.84z"/><path class="cls-4" d="M11.79 54.66C18.71 74.35 15.32 89.33 3 93.25c-6.71-15.05 7.15-25.44 8.79-38.59zm21.33-34.25C31.68 33.09 29.37 45.25 15 50.05c.24-9.56 5.54-17.24 9.42-25.45 2.43-2.24 3.66-6.77 8.47-4.39z"/><path class="cls-3" d="M32.89 20.21l-8.47 4.39c0-6.2-.25-12.64 8.72-12.73-.08 2.78-.14 5.56-.25 8.34z"/><path class="cls-6" d="M54.5 28.93c10.25-.14 19.54 3.65 28.39 8 19.2 9.49 26.43 26.73 17.86 40.83C89.34 96.55 63 103.6 47.3 90.65 37 82.18 41 69.81 44.09 59c2.94-10.16 6.9-20 10.41-30z"/><path class="cls-7" d="M123.19 101.87C112.62 121 101.31 139.34 76 140.53q23.61-19.32 47.19-38.66z"/><path class="cls-8" d="M112.75 45.17zM109.34 54a11.68 11.68 0 0 1-3.37.44l.06-.35c1.76-1.41 6.18-5.72 6.76-7.73.26-.87 0-1.17 0-1.2l-5.65 2.4-4.73 2.13a18.85 18.85 0 0 0-13.72-5.65c-9.83 0-17.8 7-17.8 15.55a23.18 23.18 0 0 0 .73 5.86c0 .45 0-.45 0 0-6.37-.16-14.48-2.75-21.7-6.45-14.25-7.18-15.14-12.18-15.14-12.18-2.24 2.38-3.39 10.24-1.13 16.41 1.46 4 6.45 7.5 6.45 7.5a15.17 15.17 0 0 1-4.57-.73 10.1 10.1 0 0 1-3.23-1.6c-1.38 3.39 1.41 9.45 6.23 13.79 2.81 2.54 7.94 4.12 7.94 4.12l-8 .23C38 94.33 54.79 99 54.79 99A27.4 27.4 0 0 1 38 105.05a31.89 31.89 0 0 1-9.15-1.34C37 110.38 47.37 115 58.67 114.38c30-1.57 46.92-27.35 47.73-52.67v.06a21.31 21.31 0 0 0 4.41-3.71 30.85 30.85 0 0 0 4.88-6.52s-4.47 1.95-6.35 2.46zm3.41-8.83c0 .48 0 0 0 0z"/></g></g></svg>