<svg xmlns="http://www.w3.org/2000/svg" width="32" height="32" viewBox="0 0 32 32"><path fill="#2D2220" d="M15.63 3.98c-.4 0-.63.02-.63.02S4 5 4 17c0 0 0 7 4 7 3.5 0 3.94-5.36 6-5.36.3 0 .62.11 1 .36 3 2-7 5-4 8 .79.79 2.36 1.24 4.23 1.24C20.44 28.24 28 24.82 28 16 28 4.73 18.24 3.98 15.63 3.98zm-.4 23.26c-1.59 0-2.94-.36-3.52-.95-.29-.29-.28-.46-.28-.51.05-.69 1.44-1.78 2.46-2.58 1.46-1.15 2.73-2.13 2.68-3.42-.02-.44-.21-1.07-1.01-1.61-.53-.35-1.05-.53-1.56-.53-1.47 0-2.25 1.351-3.02 2.65C10.03 21.93 9.31 23 8 23c-2.91 0-3-5.94-3-6C5 6.08 14.68 5.04 15.08 5c.01 0 .21-.02.55-.02C18.3 4.98 27 5.78 27 16c0 8.25-7.04 11.24-11.77 11.24z"/><path fill="#FFD561" d="M25.07 9.16c-2.67-1.94-5.97-2.18-7.44-2.18-.34 0-.54.02-.55.02C16.68 7.04 7 8.08 7 19c0 .04.03 2.25.72 3.98.09.01.18.02.28.02 1.31 0 2.03-1.07 2.98-2.71.77-1.3 1.55-2.65 3.02-2.65.51 0 1.03.181 1.56.53.76.521.97 1.11 1 1.55.01.021.01.04.01.061.05 1.29-1.22 2.27-2.68 3.42-1.02.8-2.41 1.89-2.46 2.58 0 .05-.01.22.28.51.39.4 1.12.69 2.05.83.45.08.95.12 1.47.12C19.96 27.24 27 24.25 27 16c0-3.04-.77-5.25-1.93-6.84zM13 13c-1.1 0-2-.9-2-2s.9-2 2-2 2 .9 2 2-.9 2-2 2zm8 9c-1.1 0-2-.9-2-2s.9-2 2-2 2 .9 2 2-.9 2-2 2zm0-8c-1.1 0-2-.9-2-2s.9-2 2-2 2 .9 2 2-.9 2-2 2z"/><path fill="#2D2220" d="M8 15c-1.1 0-2 .9-2 2s.9 2 2 2 2-.9 2-2-.9-2-2-2zm0 3c-.55 0-1-.45-1-1s.45-1 1-1 1 .45 1 1-.45 1-1 1z"/><circle fill="#31CFFF" cx="8" cy="17" r="1"/><path fill="#2D2220" d="M13 8c-1.66 0-3 1.34-3 3s1.34 3 3 3 3-1.34 3-3-1.34-3-3-3zm0 5c-1.1 0-2-.9-2-2s.9-2 2-2 2 .9 2 2-.9 2-2 2z"/><path fill="#E371FF" d="M15 11c0 1.1-.9 2-2 2-.29 0-.57-.06-.82-.18-.12-.25-.18-.53-.18-.82 0-1.1.9-2 2-2 .29 0 .57.06.82.18.12.25.18.53.18.82z"/><path fill="#2D2220" d="M21 9c-1.66 0-3 1.34-3 3s1.34 3 3 3 3-1.34 3-3-1.34-3-3-3zm0 5c-1.1 0-2-.9-2-2s.9-2 2-2 2 .9 2 2-.9 2-2 2z"/><path fill="#FF6B43" d="M23 12c0 1.1-.9 2-2 2-.29 0-.57-.06-.82-.18-.12-.25-.18-.53-.18-.82 0-1.1.9-2 2-2 .29 0 .57.06.82.18.12.25.18.53.18.82z"/><path fill="#2D2220" d="M21 17c-1.66 0-3 1.34-3 3s1.34 3 3 3 3-1.34 3-3-1.34-3-3-3zm0 5c-1.1 0-2-.9-2-2s.9-2 2-2 2 .9 2 2-.9 2-2 2z"/><path fill="#FFA28D" d="M23 20c0 1.1-.9 2-2 2-.29 0-.57-.06-.82-.18-.12-.25-.18-.53-.18-.82 0-1.1.9-2 2-2 .29 0 .57.06.82.18.12.25.18.53.18.82z"/></svg>