<svg xmlns="http://www.w3.org/2000/svg" width="32" height="32" viewBox="0 0 32 32"><path fill="#31CFFF" d="M15 25h7v1h-7zm-4 2h10v1H11z"/><path fill="#BCBCBC" d="M19.35 20.82c-.729.72-2.29 1.279-3.43 1.6.31-1.13.88-2.72 1.6-3.43l1.83 1.83z"/><path fill="#2D2220" d="M27.83 9.5c-.36-.14-.71-.2-1.05-.2-1.37 0-2.48.91-2.48.91s-3.01 2.41-5.49 4.48C18.47 12.08 17.73 8.47 17 7c-1-2-2-2-2-2H8S7 5 6 7c-.76 1.52-1.52 5.37-1.84 8h1c.11-.91.28-1.96.48-3h11.72l.18 1c.15.87.27 1.72.35 2.45-.93.79-1.7 1.46-2.08 1.83-1 1-1.65 3.08-1.94 4.189-.29-.109-.62-.18-.97-.18-.55 0-1.16.18-1.78.71H11c-.2 0-.38 0-.57-.02-.18 0-.36-.021-.53-.04C6.37 21.59 5.35 19.52 5.08 18h-1c.31 1.98 1.66 4.71 6.18 4.98-1.37 2.11-.81 4.91-.81 4.91s.55.11 1.38.11c2.62 0 3.63-1 3.63-1 1.15-.88 1.51-2 1.51-2 .14-.57.06-1.1-.11-1.54 1.12-.29 3.19-.93 4.19-1.94 1.42-1.409 7.07-8.479 7.07-8.479s1.34-1.581.71-3.541zM11 11H5.84c.32-1.49.69-2.84 1.05-3.55C7.47 6.29 7.97 6.04 8.08 6H11v5zm1 0V6h2.92c.09.03.47.22.94 1 .08.13.16.28.25.45.36.71.73 2.06 1.05 3.55H12zm.12 15.89c-.6.08-1.17.101-1.77.101a6.94 6.94 0 0 1 .11-1.82c.24-1.229 1.17-3.11 2.7-2.86.99.16 1.89 1.051 1.89 2.08 0 1.459-1.72 2.259-2.93 2.499zm3.8-4.47c-.18.05-.35.09-.5.13l-.22-.21-.06-.07-.08-.079-.27-.28c.12-.5.32-1.19.57-1.86l1.93 1.92c-.47.179-.95.329-1.37.449zm2.35-.88l-2.479-2.47c.22-.44.46-.82.73-1.08l1 1 1.83 1.83c-.271.26-.651.51-1.081.72zm8.56-10.04c-.18.53-.46.88-.49.91-.04.06-4.35 5.45-6.31 7.68l-2.78-2.78c2.23-1.959 7.61-6.28 7.68-6.319 0-.01.88-.69 1.851-.69.069 0 .14.01.21.01a2.51 2.51 0 0 1-.161 1.189z"/><path fill="#31CFFF" d="M15.05 24.39c0 .42-.16.891-.65 1.38-.86.86-2.06 1.15-3.05 1.211-.06-1.011.02-2.841 1.22-4.04.28-.28.56-.471.84-.57.4.12.72.35.88.47l.07.061.12.119c.23.259.57.759.57 1.369z"/><path fill="#E371FF" d="M26.83 11.5c-.18.53-.46.88-.49.91-.04.06-4.35 5.45-6.31 7.68l-1.78-1.78c2.23-1.959 7.61-6.28 7.68-6.319 0-.011.37-.301.9-.491z"/><path fill="#FFA28D" d="M17.16 11H13V7h2.86c.08.13.16.28.25.45.36.71.73 2.06 1.05 3.55zM11 7v4H7.07c.26-1.08.54-2 .82-2.55C8.47 7.29 8.97 7.04 9.08 7H11z"/><path fill="#BCBCBC" d="M17.16 11H13V7h2.86c.08.13.16.28.25.45.36.71.73 2.06 1.05 3.55zM11 7v4H7.07c.26-1.08.54-2 .82-2.55C8.47 7.29 8.97 7.04 9.08 7H11zm6.89 8.45c-.93.79-1.7 1.46-2.08 1.83-1 1-1.65 3.08-1.94 4.189-.29-.109-.62-.18-.97-.18-.55 0-1.16.18-1.78.71H11c-.2 0-.38 0-.57-.02-.18 0-.36-.021-.53-.04C8.24 20.79 8 18.97 8 18c0-1.02.26-3.04.64-5h8.9c.15.87.27 1.72.35 2.45z"/><circle fill="#2D2220" cx="4.5" cy="16.5" r=".5"/><path fill="#31CFFF" d="M26 25.5a.5.5 0 0 0-.5-.5h-2a.5.5 0 0 0 0 1h2a.5.5 0 0 0 .5-.5zm3 0a.5.5 0 0 0-.5-.5h-1a.5.5 0 0 0 0 1h1a.5.5 0 0 0 .5-.5zm-4 2a.5.5 0 0 0-.5-.5h-2a.5.5 0 0 0 0 1h2a.5.5 0 0 0 .5-.5zm3 0a.5.5 0 0 0-.5-.5h-1a.5.5 0 0 0 0 1h1a.5.5 0 0 0 .5-.5z"/></svg>