<svg width="34" height="32" viewBox="0 0 34 32" xmlns="http://www.w3.org/2000/svg"><path d="M32.01 3.704a1.156 1.156 0 0 0-1.372.887l-.84 3.916A15.027 15.027 0 0 0 16.832 1.09C8.545 1.09 1.803 7.823 1.803 16.1a1.155 1.155 0 0 0 2.312 0c0-7.003 5.705-12.701 12.717-12.701 4.571 0 8.741 2.439 10.999 6.322l-3.854-.825a1.156 1.156 0 1 0-.485 2.258l6.616 1.416a1.156 1.156 0 0 0 1.373-.887l1.418-6.608a1.155 1.155 0 0 0-.889-1.37zm-1.163 10.883a1.155 1.155 0 0 0-1.117 1.192 12.61 12.61 0 0 1-3.426 9.099 12.64 12.64 0 0 1-9.287 4.021 12.72 12.72 0 0 1-10.815-6.02l4.018 1.075a1.155 1.155 0 1 0 .599-2.23l-6.536-1.75a1.158 1.158 0 0 0-1.416.816l-1.752 6.527a1.155 1.155 0 0 0 1.117 1.454c.51 0 .978-.34 1.116-.856l.985-3.668A15.027 15.027 0 0 0 17.516 31.2a14.939 14.939 0 0 0 10.476-4.744 14.901 14.901 0 0 0 4.049-10.754 1.154 1.154 0 0 0-1.194-1.115z" stroke-width=".5" stroke="#53585F" fill="#53585F" fill-rule="evenodd"/></svg>