<svg width="30" height="39" viewBox="0 0 30 39" xmlns="http://www.w3.org/2000/svg"><g fill="#53585F" fill-rule="evenodd"><path d="M14.877.08C6.674.08 0 6.824 0 15.113c0 3.055.902 5.996 2.609 8.505a14.902 14.902 0 0 0 6.26 5.251l4.844 8.65c.237.425.682.687 1.164.687.482 0 .927-.262 1.165-.686l4.843-8.65a14.902 14.902 0 0 0 6.26-5.252 15.057 15.057 0 0 0 2.61-8.505C29.755 6.824 23.08.08 14.877.08zm3.903 27.058l-3.903 6.97-3.903-6.97a1.343 1.343 0 0 0-.663-.588c-4.638-1.893-7.635-6.382-7.635-11.437 0-6.798 5.473-12.329 12.201-12.329 6.728 0 12.202 5.53 12.202 12.33 0 5.054-2.997 9.543-7.635 11.436-.28.114-.515.322-.664.588z"/><path d="M14.877 9.355c-3.098 0-5.619 2.547-5.619 5.678s2.52 5.678 5.62 5.678c3.098 0 5.618-2.547 5.618-5.678 0-3.13-2.52-5.678-5.619-5.678zm0 8.652c-1.623 0-2.943-1.334-2.943-2.974 0-1.64 1.32-2.974 2.943-2.974s2.944 1.334 2.944 2.974c0 1.64-1.32 2.974-2.944 2.974z"/></g></svg>