<svg width="33" height="33" viewBox="0 0 33 33" xmlns="http://www.w3.org/2000/svg"><path d="M16.46 1C7.937 1 1 7.936 1 16.46c0 8.526 6.936 15.462 15.46 15.462 8.526 0 15.462-6.936 15.462-15.461S24.986 1 16.46 1zm13.47 14.482h-7.024c-.093-3.4-.675-6.578-1.661-9.034-.539-1.341-1.18-2.41-1.896-3.18 5.754 1.26 10.148 6.197 10.58 12.214zM16.46 29.127c-1.007 0-2.116-1.265-2.967-3.383-.897-2.234-1.429-5.153-1.52-8.305h8.974c-.091 3.152-.623 6.071-1.52 8.305-.851 2.118-1.96 3.383-2.967 3.383zm-4.487-13.645c.091-3.151.623-6.07 1.52-8.304.85-2.118 1.96-3.383 2.967-3.383 1.007 0 2.116 1.265 2.967 3.383.897 2.234 1.429 5.153 1.52 8.304h-8.974zm1.6-12.213c-.716.77-1.357 1.838-1.896 3.18-.986 2.455-1.568 5.633-1.662 9.033H2.993C3.426 9.465 7.819 4.527 13.573 3.27zm-10.58 14.17h7.023c.094 3.4.676 6.579 1.662 9.035.539 1.34 1.18 2.409 1.896 3.179-5.755-1.258-10.148-6.196-10.581-12.214zm16.355 12.214c.715-.77 1.357-1.838 1.896-3.18.986-2.455 1.568-5.633 1.661-9.034h7.024c-.433 6.018-4.827 10.956-10.58 12.214z" stroke-width=".5" stroke="#53585F" fill="#53585F" fill-rule="evenodd"/></svg>