<svg xmlns="http://www.w3.org/2000/svg" width="32" height="32" viewBox="0 0 32 32"><path fill="#31CFFF" d="M27 17s-.01 5-4.5 5c-1.07 0-1.88-.28-2.5-.71-.08-.13-.458-.155-.438-.165L26.3 15.44c.021.01.04.02.061.04l.01.01c.27.23.51.57.59 1.07.029.129.039.28.039.44z"/><path fill="#FFD561" d="M8 7.5c0 .28-.22.5-.5.5H7v.5c0 .28-.22.5-.5.5S6 8.78 6 8.5V8h-.5c-.28 0-.5-.22-.5-.5s.22-.5.5-.5H6v-.5c0-.28.22-.5.5-.5s.5.22.5.5V7h.5c.28 0 .5.22.5.5zm21 20c0 .279-.221.5-.5.5H28v.5c0 .279-.221.5-.5.5s-.5-.221-.5-.5V28h-.5c-.279 0-.5-.221-.5-.5s.221-.5.5-.5h.5v-.5c0-.279.221-.5.5-.5s.5.221.5.5v.5h.5c.279 0 .5.221.5.5z"/><path fill="#5FFFBA" d="M30 6.5c0 .28-.221.5-.5.5H28v1.5c0 .28-.221.5-.5.5s-.5-.22-.5-.5V7h-1.5c-.279 0-.5-.22-.5-.5s.221-.5.5-.5H27V4.5c0-.28.221-.5.5-.5s.5.22.5.5V6h1.5c.279 0 .5.22.5.5zm-20 21c0 .279-.22.5-.5.5H8v1.5c0 .279-.22.5-.5.5s-.5-.221-.5-.5V28H5.5c-.28 0-.5-.221-.5-.5s.22-.5.5-.5H7v-1.5c0-.279.22-.5.5-.5s.5.221.5.5V27h1.5c.28 0 .5.221.5.5z"/><path fill="#2D2220" d="M7 6.5c0 .28-.22.5-.5.5H6v.5c0 .28-.22.5-.5.5S5 7.78 5 7.5V7h-.5c-.28 0-.5-.22-.5-.5s.22-.5.5-.5H5v-.5c0-.28.22-.5.5-.5s.5.22.5.5V6h.5c.28 0 .5.22.5.5zm21 20c0 .279-.221.5-.5.5H27v.5c0 .279-.221.5-.5.5s-.5-.221-.5-.5V27h-.5c-.279 0-.5-.221-.5-.5s.221-.5.5-.5h.5v-.5c0-.279.221-.5.5-.5s.5.221.5.5v.5h.5c.279 0 .5.221.5.5zm1-21c0 .28-.221.5-.5.5H27v1.5c0 .28-.221.5-.5.5s-.5-.22-.5-.5V6h-1.5c-.279 0-.5-.22-.5-.5s.221-.5.5-.5H26V3.5c0-.28.221-.5.5-.5s.5.22.5.5V5h1.5c.279 0 .5.22.5.5zm-20 21c0 .279-.22.5-.5.5H7v1.5c0 .279-.22.5-.5.5s-.5-.221-.5-.5V27H4.5c-.28 0-.5-.221-.5-.5s.22-.5.5-.5H6v-1.5c0-.279.22-.5.5-.5s.5.221.5.5V26h1.5c.28 0 .5.221.5.5zm18.98-9.88s.01-.01 0-.02c-.021-.13-.04-.27-.07-.39v-.01l-.74-1.33-4.23-7.61a.548.548 0 0 0-.37-.26.512.512 0 0 0-.42.15l-2 2c-.2.19-.2.51 0 .7.189.2.51.2.699 0l1.53-1.53 3.19 5.74A2.892 2.892 0 0 0 25 14h-4.99c-1.08 0-1.75.44-2.12.81s-.59.81-.71 1.19h-2.33c-.44-1.45-1.84-2-2.85-2H7.01c-.2 0-.39.02-.57.05l3.18-5.73 1.53 1.53c.19.2.51.2.7 0 .2-.19.2-.51 0-.7l-2-2A.502.502 0 0 0 9.43 7c-.15.03-.29.12-.37.26L4.8 14.92l-.64 1.16c-.07.23-.11.43-.12.58-.03.18-.03.31-.03.34 0 .11.01 2.81 1.75 4.56.96.95 2.21 1.44 3.74 1.44 4.34 0 5.5-3.92 5.5-6h2.01c0 .11.01 2.81 1.75 4.56.96.95 2.21 1.44 3.74 1.44 4.34 0 5.5-3.92 5.5-6 0-.13-.01-.26-.02-.38zM5.36 18.97c-.35-1.03-.35-1.93-.35-1.97 0-.01 0-.21.06-.48l.01-.03c.08-.31.23-.71.56-1.01.3-.28.73-.48 1.37-.48h3.11l-4.76 3.97zM9.5 22c-2.01 0-3.12-.99-3.73-2.09.02 0 .03-.021.05-.03L11.68 15H12s2 0 2 2c0 0-.01 5-4.5 5zm8.86-3.03c-.35-1.03-.35-1.93-.35-1.97s.01-2 2-2h3.11l-4.76 3.97zM22.5 22c-2.01 0-3.12-.99-3.73-2.09.021 0 .03-.021.051-.03L24.68 15H25s.77 0 1.36.48l.01.01c.27.23.51.57.59 1.07.03.13.04.28.04.44 0 0-.01 5-4.5 5z"/><path fill="#31CFFF" d="M23.12 15l-3.95 3.29c-.16-.72-.16-1.26-.16-1.29 0-.04.01-2 2-2h2.11zm-13 0l-3.95 3.29c-.16-.72-.16-1.26-.16-1.29 0-.01 0-.21.06-.48l.01-.029c.08-.311.23-.71.56-1.01.3-.281.73-.481 1.37-.481h2.11zM14 17s-.01 5-4.5 5c-1.26 0-2.17-.39-2.82-.96.03-.04.08-.1.14-.16l6.31-5.55c.45.26.87.76.87 1.67z"/></svg>